# xmcd CD database file
#
# Track frame offsets:
#	150
#	21446
#	45229
#	68926
#	86046
#	113068
#	138968
#	161077
#	184555
#	202494
#	228827
#	254159
#	277796
#
# Disc length: 4211 seconds
#
# Revision: 0
# Processed by: cddbd v1.5.2PL0 Copyright (c) Steve Scherf et al.
# Submitted via: CDex 1.51
#
DISCID=b710710d
DTITLE=DJ Saltho - Salsa-Charts 2006
DYEAR=2006
DGENRE=Salsa
TTITLE0=Cubanoson: Cubanoson
TTITLE1=Tirso Duarte: Timba Cubana
TTITLE2=Charanga Habanera: Apiadate De Mi
TTITLE3=Isidro Infante: Pegaso
TTITLE4=V. Manuelle, feat Eddie Palmieri: Dos Generaciones
TTITLE5=Wayne Gorbea: Ven Baila Conmigo
TTITLE6=Africando: Malawoo
TTITLE7=Paulo FG: Confio En Ti
TTITLE8=Nelson Manuel: Palabras
TTITLE9=Son Sublime: Mi Charanga
TTITLE10=8 Y Mas: Vamos A Reir Un Poco
TTITLE11=Real Charanga: Hoy
TTITLE12=Malavoi: Carretero
EXTD=YEAR: 2006
EXTT0=
EXTT1=
EXTT2=
EXTT3=
EXTT4=
EXTT5=
EXTT6=
EXTT7=
EXTT8=
EXTT9=
EXTT10=
EXTT11=
EXTT12=
PLAYORDER=
